PathFileType	4	(X/Y/Z)	 s03c0301.trc
DataRate	CameraRate	NumFrames	NumMarkers	Units	OrigDataRate	OrigDataStartFrame	OrigNumFrames
200	200	6	52	mm	200	501	2000
Frame#	Time	racr			lacr			c7			jug			rlel			rdr			llel			ldr			s2			lic			ric			lasi			rasi			rpsi			lpsi			rgt			lgt			rth1			rth2			rth3			rth4			rlfc			rmfc			rsh1			rsh2			rsh3			rsh4			rlmal			rmmal			rcal			rtoe			rmt5			rmt1			lth1			lth2			lth4			lth3			llfc			lmfc			lsh1			lsh2			lsh3			lsh4			llmal			lmmal			lcal			ltoe			lmt1			lmt5			SBIKE			LBIKE			RBIKE			
		X1	Y1	Z1	X2	Y2	Z2	X3	Y3	Z3	X4	Y4	Z4	X5	Y5	Z5	X6	Y6	Z6	X7	Y7	Z7	X8	Y8	Z8	X9	Y9	Z9	X10	Y10	Z10	X11	Y11	Z11	X12	Y12	Z12	X13	Y13	Z13	X14	Y14	Z14	X15	Y15	Z15	X16	Y16	Z16	X17	Y17	Z17	X18	Y18	Z18	X19	Y19	Z19	X20	Y20	Z20	X21	Y21	Z21	X22	Y22	Z22	X23	Y23	Z23	X24	Y24	Z24	X25	Y25	Z25	X26	Y26	Z26	X27	Y27	Z27	X28	Y28	Z28	X29	Y29	Z29	X30	Y30	Z30	X31	Y31	Z31	X32	Y32	Z32	X33	Y33	Z33	X34	Y34	Z34	X35	Y35	Z35	X36	Y36	Z36	X37	Y37	Z37	X38	Y38	Z38	X39	Y39	Z39	X40	Y40	Z40	X41	Y41	Z41	X42	Y42	Z42	X43	Y43	Z43	X44	Y44	Z44	X45	Y45	Z45	X46	Y46	Z46	X47	Y47	Z47	X48	Y48	Z48	X49	Y49	Z49	X50	Y50	Z50	X51	Y51	Z51	X52	Y52	Z52	
501	2.5050	690.126761	1506.941148	-37.254671	681.688784	1501.677703	-371.089447	610.172051	1594.842649	-202.295675	656.951322	1428.785571	-201.646787	621.019980	1217.961027	26.853317	766.872417	967.603210	-34.210282	683.076491	1220.995762	-451.199068	777.020366	932.046895	-411.292283	129.559573	1250.114390	-213.757778	299.486757	1301.486134	-395.011542	300.449127	1259.870455	-27.228224	321.536261	1223.815328	-362.009333	331.962395	1189.931108	-85.257749	158.154578	1294.880988	-163.918434	160.233470	1303.478321	-247.163492	240.313253	1150.262791	-30.025516	251.985836	1192.926539	-426.812695	297.065395	1001.224957	-16.741817	355.408959	934.607925	-16.817091	376.306028	852.112908	-29.713416	388.142723	951.611825	-20.849956	419.893623	733.071874	-60.702527	431.739847	720.090895	-173.162776	364.521185	574.143538	-32.833223	358.111539	485.769834	-47.435750	308.287240	413.021916	-48.954516	386.126243	478.918943	-73.660798	250.986104	294.681389	-67.887812	274.908418	302.453304	-152.091900	180.829627	262.843449	-100.257388	484.080126	186.527406	-110.049629	365.948798	201.265379	-35.756881	390.846637	212.192458	-150.646364	347.662962	1085.264316	-463.335958	420.575353	1041.055533	-477.349506	446.905718	1062.507348	-465.188287	461.617251	963.669385	-494.702455	539.270234	858.900752	-501.520238	584.592628	843.556709	-342.051767	392.855987	762.002795	-503.362481	340.359700	701.798797	-472.432767	255.790838	673.342456	-454.756497	361.754425	678.591724	-450.198624	149.301823	612.386493	-420.419412	191.966819	605.902545	-335.005347	80.534998	633.581317	-365.600037	262.433559	382.052600	-347.542790	200.436423	456.491636	-310.751799	171.300156	458.697490	-425.739814	-210.922096	947.049782	-226.951365	-4.256919	84.247602	-432.865231	-8.734412	80.875640	-32.464564	
502	2.5100	691.824417	1506.769526	-38.184551	682.201043	1502.012246	-371.876229	611.218575	1594.902083	-202.827582	657.989594	1428.709558	-202.428236	622.619135	1217.951734	26.672618	767.337657	967.185431	-34.584930	683.384980	1221.174544	-451.974650	777.083663	932.090667	-411.378619	130.561579	1250.099590	-212.819326	299.772715	1301.970129	-394.485334	302.130689	1259.686541	-27.093870	322.191916	1224.531931	-361.685336	333.547146	1190.098761	-85.282037	159.323017	1294.779756	-162.921803	161.062717	1303.606439	-246.235481	241.480344	1149.373266	-29.845515	252.507466	1193.933225	-426.471452	296.654246	1000.498602	-16.877449	354.311996	933.104114	-17.114825	374.285121	850.452987	-30.131802	387.250141	949.748647	-21.202038	416.581063	731.047917	-61.340953	426.854964	717.614683	-174.381070	361.367183	572.135299	-33.235887	355.125553	483.551068	-47.717525	305.387386	410.762019	-49.109458	383.137907	476.826882	-73.955738	248.247404	292.570505	-67.611080	273.253172	300.608107	-151.539564	178.054858	261.164393	-99.938512	480.781808	182.691103	-110.309892	362.845423	198.239101	-35.840736	387.859364	209.145207	-150.475119	348.785501	1086.636318	-462.682129	421.778112	1043.215223	-477.928037	448.002750	1064.844481	-465.753923	463.341075	966.026165	-495.445827	541.503672	861.730504	-502.434363	587.247443	846.351461	-342.355956	394.914869	765.178691	-503.690807	342.449828	704.960915	-472.734082	257.935967	676.649736	-454.741294	363.940042	681.602212	-450.630972	151.644635	615.419992	-420.274102	194.511750	608.974945	-334.848971	82.712670	636.134559	-365.443897	257.647847	380.869564	-338.887372	203.655661	459.818989	-310.869346	174.695617	461.955965	-425.705114	-210.941819	947.008781	-226.932691	-4.254865	84.241532	-432.868722	-8.730294	80.864081	-32.477836	
503	2.5150	693.565786	1506.531814	-39.109701	682.817733	1502.421217	-372.715707	612.317052	1595.051156	-203.359898	659.110879	1428.734628	-203.142571	624.314954	1217.983612	26.323035	767.825708	966.669436	-35.068060	683.646066	1221.292290	-452.653446	777.141871	932.082204	-411.401931	131.431646	1250.284189	-211.767520	299.979424	1302.600931	-394.002698	303.929488	1259.582213	-26.985296	322.715670	1225.297698	-361.265520	335.174818	1190.767911	-85.179291	160.462704	1294.735182	-161.936330	161.624821	1303.959639	-245.733721	242.542528	1148.773075	-29.733889	253.027851	1195.000459	-426.066459	296.184736	999.803050	-16.966819	353.164673	931.618450	-17.789276	372.069988	848.868995	-30.534982	386.293840	947.970100	-21.888305	413.059895	729.102435	-62.029630	423.195151	715.556418	-174.767986	358.344235	570.069581	-33.799699	351.918082	481.672678	-47.989320	302.408770	408.633327	-49.186516	379.934074	474.897490	-74.206882	245.446204	290.530616	-67.380699	270.901249	298.590662	-151.235588	175.294900	259.515810	-99.508141	477.442876	178.951414	-110.621760	359.692676	195.259927	-35.877391	384.543025	206.092044	-150.572154	349.676587	1088.333416	-462.931305	422.949258	1045.366818	-478.418250	448.871932	1067.330275	-466.723879	464.929209	968.478436	-496.085663	543.799976	864.365016	-502.716980	589.619792	849.167910	-342.727997	396.926805	768.388305	-503.959544	344.557960	708.072143	-472.963138	260.074491	679.805909	-454.662833	366.082849	684.687855	-450.943251	153.971998	618.372311	-420.065028	196.935265	612.062045	-334.660844	84.789218	638.597708	-365.263933	267.211641	388.526330	-343.773249	206.933392	463.089626	-310.906116	177.718812	464.891969	-425.129817	-210.929463	947.016887	-226.940459	-4.260741	84.239241	-432.873993	-8.727463	80.861106	-32.455291	
504	2.5200	695.341116	1506.467968	-40.092920	683.478561	1502.703418	-373.265772	613.455439	1595.261370	-203.966773	660.231124	1428.810372	-203.898449	626.123278	1218.090908	25.847668	768.450000	965.821979	-35.542154	683.912213	1221.407569	-453.360206	777.198977	932.078845	-411.400000	132.402750	1250.595186	-210.737903	300.097398	1303.417219	-393.489126	305.841395	1259.600711	-26.943377	323.027054	1226.149033	-360.280762	336.740006	1191.347218	-85.166125	161.560840	1294.874997	-160.853661	162.412073	1304.401864	-244.505444	243.615807	1148.266443	-29.537500	253.535827	1196.236619	-425.635302	295.607166	999.198377	-17.074632	351.649467	930.605784	-17.716283	369.625598	847.466570	-30.948786	384.944036	946.486683	-21.885933	409.302998	727.320513	-62.686280	419.429522	713.580228	-175.234504	354.782992	568.298558	-34.144662	348.628604	479.787276	-48.209656	299.292147	406.710800	-49.290247	376.598816	473.063099	-74.501174	242.596231	288.531729	-67.285037	267.979135	296.464745	-151.132775	172.474838	258.154743	-99.118299	473.937685	175.154767	-110.858379	356.505354	192.366361	-35.868911	381.178060	203.036699	-150.687721	350.525653	1090.075344	-463.206794	424.014512	1047.629321	-478.893595	450.038276	1069.529857	-466.760839	466.438908	971.014385	-496.680623	545.904599	867.270514	-503.350171	591.720505	852.001816	-343.158662	398.848916	771.517196	-504.078734	346.563297	711.310587	-473.026251	262.107364	682.957722	-454.585774	368.094220	687.770797	-451.182896	156.199801	621.206067	-419.771046	199.325155	614.983433	-334.432720	86.934424	640.921491	-365.098616	271.441326	392.470173	-344.163865	210.291165	466.330214	-310.939707	181.555571	468.217583	-425.562674	-211.002343	947.019970	-227.103145	-4.265683	84.231601	-432.870586	-8.723043	80.857983	-32.457205	
505	2.5250	697.161155	1506.383885	-41.081746	683.988426	1503.138501	-374.684626	614.645060	1595.517119	-204.680777	661.337915	1428.972058	-204.742071	627.955851	1218.292803	25.279716	768.981545	965.259399	-35.932310	684.142945	1221.490880	-453.905379	777.287379	932.067079	-411.432308	133.227474	1251.175450	-209.641227	300.176389	1304.354931	-393.015445	307.757562	1259.757657	-26.866585	323.476951	1227.272689	-359.880871	338.507590	1191.860315	-85.135685	162.704882	1295.149596	-159.715459	163.165416	1305.052687	-243.248778	244.672293	1147.865675	-29.386942	253.895013	1197.579147	-425.096384	294.912933	998.851802	-17.176842	350.249949	929.407617	-18.414120	367.057838	846.294657	-31.355142	383.735382	944.900548	-22.604918	405.336931	725.754764	-63.383047	415.450426	711.945256	-175.594031	351.098653	566.655792	-34.517300	345.165680	478.158311	-48.428993	296.038631	404.876103	-49.415945	373.090299	471.342762	-74.781357	240.110990	285.790350	-68.138318	264.613317	294.294132	-151.183924	169.609702	256.905831	-98.791991	470.379474	171.355639	-111.114896	353.216384	189.591154	-35.910319	377.763570	199.947465	-150.778715	351.329785	1091.922494	-463.367277	425.019613	1049.925703	-479.361322	450.765219	1072.166960	-467.713104	467.874449	973.507989	-497.210604	547.821887	870.383335	-504.294871	593.560412	854.848939	-343.638719	400.648028	774.800327	-504.113616	348.404561	714.449549	-473.099575	264.067230	686.067011	-454.396845	370.068570	690.914521	-451.397355	158.420054	623.971047	-419.437017	201.743344	617.853418	-334.152487	88.908056	643.053890	-364.793743	278.062325	399.242671	-349.500793	213.733472	469.516341	-310.913039	185.087999	471.364487	-425.421233	-210.984197	946.981650	-226.915366	-4.248247	84.218040	-432.875429	-8.743317	80.846122	-32.464808	
506	2.5300	699.005730	1506.427370	-42.137066	684.617394	1503.463828	-375.740774	615.978839	1595.929425	-205.442885	662.454921	1429.145421	-205.701765	629.875412	1218.547798	24.664752	769.625527	964.847164	-36.378984	684.447770	1221.552641	-454.400548	777.368877	932.038117	-411.461913	134.010943	1251.887610	-208.440491	300.196655	1305.481277	-392.496053	309.677442	1259.950756	-26.857255	323.835440	1228.614488	-359.461314	340.268295	1192.430283	-85.199910	163.761447	1295.746670	-158.450645	163.914998	1305.861008	-241.971789	245.656910	1147.715875	-29.227483	254.282257	1199.046702	-424.546626	294.089744	998.710696	-17.292613	348.431308	928.727643	-18.305283	364.283916	845.214615	-31.722111	382.068384	943.746755	-22.581826	401.171877	724.307027	-64.077736	411.267527	710.370058	-175.992568	347.238963	565.202246	-34.836059	341.614903	476.644729	-48.627229	292.729840	403.230289	-49.432692	369.604333	469.999390	-74.911794	237.850016	283.345255	-69.144531	260.930282	292.142598	-151.341837	166.695560	255.723186	-98.489514	466.779043	167.798353	-111.287993	349.869579	186.890415	-35.909924	374.085628	197.139415	-150.991120	352.040487	1093.799250	-463.566529	425.930718	1052.299842	-479.822181	451.579337	1074.630919	-468.217971	469.191657	976.079441	-497.696068	549.717538	873.430401	-504.706430	595.150344	857.705039	-344.158937	402.393229	777.959154	-504.053405	350.284966	717.509897	-473.068755	265.994801	689.094860	-454.123119	371.961329	693.922665	-451.432592	160.620466	626.624008	-419.047867	203.990955	620.720296	-333.743801	90.850036	645.076332	-364.454683	282.652999	403.193132	-349.870527	217.252958	472.632904	-310.823703	188.694821	474.327895	-425.335738	-210.991236	946.978121	-226.908835	-4.252900	84.223528	-432.863999	-8.739051	80.845958	-32.476051	
